<svg xmlns="http://www.w3.org/2000/svg" viewBox="0 0 210 210" shape-rendering="crispEdges" role="img" aria-label="HomeKit pairing QR code (demo placeholder)">
  <rect width="210" height="210" fill="#fff"/>
  <g fill="#000"><rect x="0" y="0" width="70" height="70"/><rect x="10" y="10" width="50" height="50" fill="#fff"/><rect x="20" y="20" width="30" height="30"/><rect x="140" y="0" width="70" height="70"/><rect x="150" y="10" width="50" height="50" fill="#fff"/><rect x="160" y="20" width="30" height="30"/><rect x="0" y="140" width="70" height="70"/><rect x="10" y="150" width="50" height="50" fill="#fff"/><rect x="20" y="160" width="30" height="30"/><rect x="80" y="60" width="10" height="10"/><rect x="60" y="80" width="10" height="10"/><rect x="100" y="60" width="10" height="10"/><rect x="60" y="100" width="10" height="10"/><rect x="120" y="60" width="10" height="10"/><rect x="60" y="120" width="10" height="10"/><rect x="100" y="0" width="10" height="10"/><rect x="120" y="0" width="10" height="10"/><rect x="90" y="10" width="10" height="10"/><rect x="120" y="10" width="10" height="10"/><rect x="90" y="20" width="10" height="10"/><rect x="120" y="20" width="10" height="10"/><rect x="90" y="30" width="10" height="10"/><rect x="100" y="30" width="10" height="10"/><rect x="120" y="30" width="10" height="10"/><rect x="80" y="40" width="10" height="10"/><rect x="120" y="50" width="10" height="10"/><rect x="100" y="70" width="10" height="10"/><rect x="110" y="70" width="10" height="10"/><rect x="120" y="70" width="10" height="10"/><rect x="0" y="80" width="10" height="10"/><rect x="40" y="80" width="10" height="10"/><rect x="50" y="80" width="10" height="10"/><rect x="110" y="80" width="10" height="10"/><rect x="120" y="80" width="10" height="10"/><rect x="130" y="80" width="10" height="10"/><rect x="160" y="80" width="10" height="10"/><rect x="190" y="80" width="10" height="10"/><rect x="50" y="90" width="10" height="10"/><rect x="110" y="90" width="10" height="10"/><rect x="140" y="90" width="10" height="10"/><rect x="200" y="90" width="10" height="10"/><rect x="20" y="100" width="10" height="10"/><rect x="30" y="100" width="10" height="10"/><rect x="40" y="100" width="10" height="10"/><rect x="50" y="100" width="10" height="10"/><rect x="70" y="100" width="10" height="10"/><rect x="90" y="100" width="10" height="10"/><rect x="140" y="100" width="10" height="10"/><rect x="180" y="100" width="10" height="10"/><rect x="200" y="100" width="10" height="10"/><rect x="10" y="110" width="10" height="10"/><rect x="20" y="110" width="10" height="10"/><rect x="30" y="110" width="10" height="10"/><rect x="80" y="110" width="10" height="10"/><rect x="120" y="110" width="10" height="10"/><rect x="150" y="110" width="10" height="10"/><rect x="160" y="110" width="10" height="10"/><rect x="190" y="110" width="10" height="10"/><rect x="200" y="110" width="10" height="10"/><rect x="20" y="120" width="10" height="10"/><rect x="30" y="120" width="10" height="10"/><rect x="70" y="120" width="10" height="10"/><rect x="120" y="120" width="10" height="10"/><rect x="130" y="120" width="10" height="10"/><rect x="140" y="120" width="10" height="10"/><rect x="150" y="120" width="10" height="10"/><rect x="170" y="120" width="10" height="10"/><rect x="200" y="120" width="10" height="10"/><rect x="90" y="130" width="10" height="10"/><rect x="110" y="130" width="10" height="10"/><rect x="130" y="130" width="10" height="10"/><rect x="160" y="130" width="10" height="10"/><rect x="170" y="130" width="10" height="10"/><rect x="200" y="130" width="10" height="10"/><rect x="90" y="140" width="10" height="10"/><rect x="100" y="140" width="10" height="10"/><rect x="110" y="140" width="10" height="10"/><rect x="130" y="140" width="10" height="10"/><rect x="170" y="140" width="10" height="10"/><rect x="120" y="150" width="10" height="10"/><rect x="130" y="150" width="10" height="10"/><rect x="200" y="150" width="10" height="10"/><rect x="90" y="160" width="10" height="10"/><rect x="180" y="160" width="10" height="10"/><rect x="190" y="160" width="10" height="10"/><rect x="80" y="170" width="10" height="10"/><rect x="90" y="170" width="10" height="10"/><rect x="140" y="170" width="10" height="10"/><rect x="150" y="170" width="10" height="10"/><rect x="160" y="170" width="10" height="10"/><rect x="200" y="170" width="10" height="10"/><rect x="90" y="180" width="10" height="10"/><rect x="100" y="180" width="10" height="10"/><rect x="120" y="180" width="10" height="10"/><rect x="150" y="180" width="10" height="10"/><rect x="160" y="180" width="10" height="10"/><rect x="190" y="180" width="10" height="10"/><rect x="80" y="190" width="10" height="10"/><rect x="120" y="190" width="10" height="10"/><rect x="140" y="190" width="10" height="10"/><rect x="160" y="190" width="10" height="10"/><rect x="170" y="190" width="10" height="10"/><rect x="190" y="190" width="10" height="10"/><rect x="80" y="200" width="10" height="10"/><rect x="100" y="200" width="10" height="10"/><rect x="110" y="200" width="10" height="10"/><rect x="130" y="200" width="10" height="10"/><rect x="150" y="200" width="10" height="10"/><rect x="170" y="200" width="10" height="10"/></g>
</svg>
